<?xml version="1.0" encoding="UTF-8"?>
<svg width="200" height="200" viewBox="0 0 200 200" xmlns="http://www.w3.org/2000/svg">
  <!-- Background Circle -->
  <circle cx="100" cy="100" r="90" fill="#6B4EFF" opacity="0.1"/>
  
  <!-- Brain Circuit Pattern -->
  <path d="M60,80 Q80,60 100,80 Q120,100 140,80" stroke="#6B4EFF" stroke-width="3" fill="none"/>
  <path d="M70,100 Q90,80 110,100 Q130,120 150,100" stroke="#6B4EFF" stroke-width="3" fill="none"/>
  <path d="M80,120 Q100,100 120,120 Q140,140 160,120" stroke="#6B4EFF" stroke-width="3" fill="none"/>
  
  <!-- Heart Element -->
  <path d="M100,140 Q90,130 80,140 Q70,150 100,170 Q130,150 120,140 Q110,130 100,140" 
        fill="#FF4E6B" stroke="#FF4E6B" stroke-width="2"/>
  
  <!-- Circuit Nodes -->
  <circle cx="80" cy="80" r="4" fill="#6B4EFF"/>
  <circle cx="100" cy="100" r="4" fill="#6B4EFF"/>
  <circle cx="120" cy="120" r="4" fill="#6B4EFF"/>
  <circle cx="140" cy="100" r="4" fill="#6B4EFF"/>
  
  <!-- Brain Outline -->
  <path d="M70,70 Q100,40 130,70 Q140,100 130,130 Q100,160 70,130 Q60,100 70,70" 
        stroke="#6B4EFF" stroke-width="3" fill="none"/>
</svg> 